<?xml version="1.0" standalone="no"?>
<!DOCTYPE svg PUBLIC "-//W3C//DTD SVG 20010904//EN"
 "http://www.w3.org/TR/2001/REC-SVG-20010904/DTD/svg10.dtd">
<svg version="1.0" xmlns="http://www.w3.org/2000/svg"
 width="6250.000000pt" height="6250.000000pt" viewBox="0 0 6250.000000 6250.000000"
 preserveAspectRatio="xMidYMid meet">

<g transform="translate(0.000000,6250.000000) scale(0.100000,-0.100000)"
fill="#000000" stroke="none">
<path d="M3332 27778 l3 -103 28053 -3 28052 -2 0 105 0 105 -28055 0 -28056
0 3 -102z"/>
<path d="M6535 25553 c-480 -28 -818 -92 -1146 -217 -593 -225 -1017 -645
-1207 -1198 -90 -259 -125 -494 -126 -828 0 -248 9 -345 50 -539 148 -694 623
-1158 1479 -1446 214 -72 388 -116 905 -230 239 -53 498 -112 574 -131 286
-72 521 -163 653 -252 174 -118 273 -320 273 -557 0 -415 -280 -672 -835 -766
-155 -27 -509 -36 -725 -20 -673 51 -1301 237 -2069 612 -134 65 -246 119
-248 119 -2 0 -2 -356 -1 -792 l3 -792 185 -64 c733 -253 1424 -395 2163 -443
237 -15 873 -6 1062 15 397 46 697 114 973 222 789 308 1215 915 1293 1840 18
219 7 566 -24 744 -67 383 -207 677 -438 925 -211 225 -571 432 -1014 582
-298 101 -448 138 -1190 288 -286 57 -578 121 -648 140 -465 128 -656 272
-708 534 -17 88 -7 290 19 361 34 96 70 157 133 225 176 187 474 282 964 305
691 34 1476 -128 2285 -470 79 -33 144 -60 146 -60 2 0 4 346 4 769 l0 769
-82 22 c-493 133 -1193 257 -1728 305 -316 28 -760 41 -975 28z"/>
<path d="M11270 24720 l0 -710 1210 0 1210 0 0 -2935 0 -2935 940 0 940 0 2
2933 3 2932 1208 3 1207 2 0 710 0 710 -3360 0 -3360 0 0 -710z"/>
<path d="M19853 23043 c3 -2197 4 -2400 20 -2532 57 -469 151 -818 307 -1136
226 -461 558 -795 1018 -1024 341 -170 708 -271 1194 -327 184 -21 799 -30
1010 -15 1075 79 1803 435 2243 1096 274 412 427 919 475 1570 6 89 10 975 10
2448 l0 2307 -937 -2 -938 -3 -6 -2375 c-5 -2522 -3 -2401 -49 -2662 -16 -92
-57 -242 -87 -323 -144 -385 -377 -578 -798 -662 -115 -23 -508 -26 -625 -4
-619 111 -884 481 -950 1325 -6 81 -10 980 -10 2417 l0 2289 -940 0 -941 0 4
-2387z"/>
<path d="M28810 21785 l0 -3646 1388 4 c860 3 1450 9 1552 16 1018 68 1515
170 2045 420 464 219 907 586 1227 1018 460 619 678 1439 638 2393 -42 992
-351 1744 -970 2360 -606 604 -1301 897 -2390 1009 -533 55 -761 62 -2187 68
l-1303 5 0 -3647z m2728 2215 c297 -14 526 -47 737 -106 566 -159 965 -468
1204 -932 167 -327 243 -687 244 -1162 1 -254 -10 -390 -48 -596 -78 -420
-241 -748 -509 -1022 -325 -334 -728 -514 -1336 -598 -88 -13 -234 -17 -627
-21 l-513 -5 0 2226 0 2226 323 0 c177 0 413 -5 525 -10z"/>
<path d="M37900 21785 l0 -3645 2590 0 2590 0 0 710 0 710 -1650 0 -1650 0 0
835 0 835 1500 0 1500 0 0 710 0 710 -1500 0 -1500 0 0 680 0 680 1595 0 1595
0 0 710 0 710 -2535 0 -2535 0 0 -3645z"/>
<path d="M45790 21785 l0 -3645 890 0 890 0 2 2494 3 2494 1321 -2491 1321
-2492 1052 -3 1051 -2 0 3645 0 3645 -890 0 -890 0 -2 -2497 -3 -2498 -1324
2498 -1325 2497 -1048 0 -1048 0 0 -3645z"/>
<path d="M54170 24720 l0 -710 1208 -2 1207 -3 3 -2932 2 -2933 940 0 940 0 0
2935 0 2935 1205 0 1205 0 0 710 0 710 -3355 0 -3355 0 0 -710z"/>
<path d="M6440 14994 c-442 -38 -742 -98 -1027 -204 -682 -255 -1123 -733
-1287 -1395 -111 -449 -98 -978 35 -1380 194 -591 649 -985 1444 -1253 176
-59 414 -119 905 -227 517 -114 672 -153 845 -212 367 -125 527 -255 601 -487
34 -107 43 -286 20 -396 -58 -275 -287 -479 -642 -569 -449 -115 -1100 -84
-1749 84 -383 99 -842 278 -1292 504 -90 44 -167 81 -173 81 -16 0 -14 -1565
3 -1577 35 -28 569 -198 857 -272 982 -255 2038 -319 2877 -175 620 106 1123
353 1427 701 348 397 516 919 516 1602 0 211 -12 352 -46 519 -100 504 -348
870 -769 1137 -195 124 -520 264 -820 355 -241 73 -379 105 -995 230 -726 147
-848 180 -1070 287 -143 69 -230 149 -284 263 -49 101 -59 162 -54 309 6 154
30 233 103 341 129 190 368 302 760 356 183 25 676 26 890 0 566 -66 1194
-242 1748 -490 l57 -26 -2 773 -3 772 -130 33 c-578 147 -1184 249 -1795 303
-122 10 -861 21 -950 13z"/>
<path d="M15770 14993 c-25 -2 -117 -10 -205 -19 -1072 -106 -1917 -551 -2485
-1309 -474 -633 -710 -1445 -710 -2445 0 -1243 362 -2189 1100 -2872 515 -477
1178 -767 1985 -868 729 -90 1499 -28 2110 170 1108 361 1882 1209 2169 2377
154 629 177 1413 60 2098 -47 271 -129 564 -229 815 -100 254 -295 587 -471
808 -104 131 -375 400 -504 502 -557 437 -1234 678 -2085 740 -127 9 -625 11
-735 3z m561 -1363 c370 -38 681 -174 927 -405 445 -419 672 -1096 672 -2005
0 -1230 -437 -2066 -1213 -2325 -376 -125 -848 -122 -1216 7 -569 200 -967
734 -1116 1498 -99 508 -97 1154 5 1660 145 723 506 1230 1033 1450 256 107
592 151 908 120z"/>
<path d="M25815 14994 c-463 -34 -826 -100 -1180 -215 -553 -179 -1018 -462
-1416 -862 -561 -564 -876 -1265 -976 -2177 -26 -234 -25 -817 0 -1045 60
-524 168 -913 367 -1320 485 -989 1424 -1655 2620 -1859 550 -94 1177 -100
1715 -17 477 73 982 234 1408 447 l67 34 0 754 0 755 -123 -79 c-256 -164
-542 -308 -797 -403 -507 -189 -1152 -254 -1645 -166 -349 63 -664 203 -905
404 -375 312 -620 747 -724 1282 -91 469 -84 1018 19 1477 160 713 609 1263
1215 1489 333 124 708 170 1126 137 616 -48 1138 -231 1716 -602 59 -37 109
-68 112 -68 3 0 6 337 6 750 l0 750 -111 55 c-468 235 -1020 394 -1602 461
-125 14 -765 27 -892 18z"/>
<path d="M31800 11225 l0 -3645 940 0 940 0 0 3645 0 3645 -940 0 -940 0 0
-3645z"/>
<path d="M37500 11225 l0 -3645 2590 0 2590 0 0 710 0 710 -1647 2 -1648 3 -3
833 -2 832 1505 0 1505 0 0 710 0 710 -1502 2 -1503 3 -3 678 -2 677 1600 0
1600 0 0 710 0 710 -2540 0 -2540 0 0 -3645z"/>
<path d="M45230 14160 l0 -710 1210 0 1210 0 0 -2935 0 -2935 940 0 940 0 0
2935 0 2935 1210 0 1210 0 0 710 0 710 -3360 0 -3360 0 0 -710z"/>
<path d="M53820 14865 c0 -3 623 -951 1385 -2107 l1385 -2103 0 -1537 0 -1538
940 0 940 0 0 1536 0 1535 1389 2110 1390 2109 -1032 0 -1032 -1 -825 -1294
c-454 -712 -828 -1293 -832 -1292 -4 1 -378 583 -831 1292 l-825 1290 -1026 3
c-564 1 -1026 0 -1026 -3z"/>
</g>
</svg>
